<svg width="21" height="18" viewBox="0 0 21 18" fill="none" xmlns="http://www.w3.org/2000/svg">
<path d="M19.8086 9.57016C19.8084 9.57057 19.8082 9.57105 19.8079 9.57146L15.6898 16.6798C15.3813 17.2123 14.8866 17.2078 14.5849 16.6695C14.2833 16.1313 14.2888 15.2633 14.5973 14.7308L17.3623 9.95834L0.817251 9.87476C0.385772 9.87258 0.0391114 9.25704 0.0429362 8.49986C0.046761 7.74269 0.399622 7.13068 0.831101 7.13286L17.3761 7.21644L14.6596 2.41633C14.3565 1.88066 14.3597 1.01264 14.6668 0.477515C14.9739 -0.0577432 15.4686 -0.0570945 15.7717 0.478434L19.8178 7.628C19.818 7.62841 19.8182 7.62889 19.8185 7.6293C20.1217 8.16676 20.1164 9.03758 19.8086 9.57016Z" fill="black"/>
</svg>
