<svg width="35" height="29" viewBox="0 0 35 29" fill="none" xmlns="http://www.w3.org/2000/svg">
<rect width="35" height="29" fill="black"/>
<path d="M33.6328 13.3672H1.36719C0.61209 13.3672 0 13.8743 0 14.5C0 15.1257 0.61209 15.6328 1.36719 15.6328H33.6328C34.3879 15.6328 35 15.1257 35 14.5C35 13.8743 34.3879 13.3672 33.6328 13.3672Z" fill="#FAC91B"/>
<path d="M33.6328 4.30469H1.36719C0.61209 4.30469 0 4.81185 0 5.4375C0 6.06315 0.61209 6.57031 1.36719 6.57031H33.6328C34.3879 6.57031 35 6.06315 35 5.4375C35 4.81185 34.3879 4.30469 33.6328 4.30469Z" fill="#FAC91B"/>
<path d="M33.6328 22.4297H1.36719C0.61209 22.4297 0 22.9368 0 23.5625C0 24.1882 0.61209 24.6953 1.36719 24.6953H33.6328C34.3879 24.6953 35 24.1882 35 23.5625C35 22.9368 34.3879 22.4297 33.6328 22.4297Z" fill="#FAC91B"/>
</svg>
