<svg width="58" height="58" viewBox="0 0 58 58" fill="none" xmlns="http://www.w3.org/2000/svg">
<path d="M55.7344 26.7344H2.26562C1.01432 26.7344 0 27.7487 0 29C0 30.2513 1.01432 31.2656 2.26562 31.2656H55.7344C56.9857 31.2656 58 30.2513 58 29C58 27.7487 56.9857 26.7344 55.7344 26.7344Z" fill="black"/>
<path d="M55.7344 8.60938H2.26562C1.01432 8.60938 0 9.6237 0 10.875C0 12.1263 1.01432 13.1406 2.26562 13.1406H55.7344C56.9857 13.1406 58 12.1263 58 10.875C58 9.6237 56.9857 8.60938 55.7344 8.60938Z" fill="black"/>
<path d="M55.7344 44.8594H2.26562C1.01432 44.8594 0 45.8737 0 47.125C0 48.3763 1.01432 49.3906 2.26562 49.3906H55.7344C56.9857 49.3906 58 48.3763 58 47.125C58 45.8737 56.9857 44.8594 55.7344 44.8594Z" fill="black"/>
</svg>
