<svg width="20" height="28" viewBox="0 0 20 28" fill="none" xmlns="http://www.w3.org/2000/svg">
<g clip-path="url(#clip0)">
<path d="M8.00966 28C9.31346 28 10.3704 26.5181 10.3704 24.69C10.3704 22.8619 9.31346 21.38 8.00966 21.38C6.70586 21.38 5.64893 22.8619 5.64893 24.69C5.64893 26.5181 6.70586 28 8.00966 28Z" fill="#FFFBFB"/>
<path d="M14.8991 21.3801C13.5953 21.3801 12.5383 22.8621 12.5383 24.6901C12.5383 26.5182 13.5953 28.0001 14.8991 28.0001C16.2028 28.0001 17.2598 26.5182 17.2598 24.6901C17.2598 22.8621 16.2028 21.3801 14.8991 21.3801Z" fill="#FFFBFB"/>
<path d="M18.9208 18.0025H6.61125L6.37036 16.0435H16.4878C16.7854 16.0447 17.0532 15.79 17.1623 15.4018L19.5712 6.89031C19.7176 6.36969 19.5352 5.78126 19.1639 5.5761C19.0788 5.52907 18.9881 5.50512 18.8967 5.50552H5.11772L4.53958 0.844489C4.4802 0.351643 4.17335 -0.00689206 3.8169 0.00010053H1.04665C0.647532 0.00010053 0.323975 0.453762 0.323975 1.01337C0.323975 1.57297 0.647532 2.02663 1.04665 2.02663H3.21467L5.28634 19.1846C5.34572 19.6775 5.65258 20.036 6.00902 20.029H18.9208C19.3199 20.029 19.6435 19.5753 19.6435 19.0157C19.6435 18.4561 19.3199 18.0025 18.9208 18.0025Z" fill="#FFFBFB"/>
</g>
<defs>
<clipPath id="clip0">
<rect width="19.97" height="28" fill="white"/>
</clipPath>
</defs>
</svg>
